<?xml version="1.0" encoding="UTF-8" standalone="no"?>
<!-- Created with Inkscape (http://www.inkscape.org/) -->

<svg
   xmlns:dc="http://purl.org/dc/elements/1.1/"
   xmlns:cc="http://creativecommons.org/ns#"
   xmlns:rdf="http://www.w3.org/1999/02/22-rdf-syntax-ns#"
   xmlns:svg="http://www.w3.org/2000/svg"
   xmlns="http://www.w3.org/2000/svg"
   xmlns:sodipodi="http://sodipodi.sourceforge.net/DTD/sodipodi-0.dtd"
   xmlns:inkscape="http://www.inkscape.org/namespaces/inkscape"
   width="210mm"
   height="297mm"
   viewBox="0 0 744.09448819 1052.3622047"
   id="svg2"
   version="1.1"
   inkscape:version="0.91 r13725"
   sodipodi:docname="cat.svg">
  <defs
     id="defs4" />
  <sodipodi:namedview
     id="base"
     pagecolor="#ffffff"
     bordercolor="#666666"
     borderopacity="1.0"
     inkscape:pageopacity="0.0"
     inkscape:pageshadow="2"
     inkscape:zoom="0.49497475"
     inkscape:cx="-250.16724"
     inkscape:cy="535.9652"
     inkscape:document-units="px"
     inkscape:current-layer="layer1"
     showgrid="false"
     inkscape:window-width="1440"
     inkscape:window-height="897"
     inkscape:window-x="-8"
     inkscape:window-y="-8"
     inkscape:window-maximized="1" />
  <metadata
     id="metadata7">
    <rdf:RDF>
      <cc:Work
         rdf:about="">
        <dc:format>image/svg+xml</dc:format>
        <dc:type
           rdf:resource="http://purl.org/dc/dcmitype/StillImage" />
        <dc:title></dc:title>
      </cc:Work>
    </rdf:RDF>
  </metadata>
  <g
     inkscape:label="レイヤー 1"
     inkscape:groupmode="layer"
     id="layer1">
    <path
       style="fill:#24221c;fill-opacity:1;fill-rule:evenodd;stroke:#000000;stroke-width:0.77605891px;stroke-linecap:butt;stroke-linejoin:miter;stroke-opacity:1"
       d="m 154.72673,484.06772 c -10.13685,-39.60094 -6.73475,-78.72501 -1.66298,-87.58414 4.11791,-23.60197 29.10211,-46.56372 30.76509,-49.88969 -6.65192,-15.15169 -7.48341,-37.32489 -6.23617,-45.82461 2.49447,-16.99945 10.39361,-34.73801 10.39361,-34.73801 30.76506,-7.39107 85.6433,26.60784 94.37394,30.30337 34.09102,-5.91285 69.96913,-10.6619 88.55352,-9.23883 45.04493,-0.77315 61.1144,4.43464 78.15991,7.76061 30.76508,-18.47766 84.81183,-36.58577 90.63224,-29.93382 17.14811,26.97562 11.20079,61.04546 7.4834,76.49754 24.16854,20.58818 38.97901,57.54893 39.07996,70.95423 1.35023,32.89494 -2.07873,68.36737 -6.23617,84.25817 -8.70925,24.30501 -20.81675,39.66042 -42.82165,57.28076 -45.7811,25.78827 -93.9582,26.97739 -105.59903,28.08605 -11.64084,1.10866 -112.25094,0.36956 -122.22881,-0.36954 -31.59656,-1.84778 -77.32842,-15.52125 -86.05905,-20.32544 -11.04515,-6.34177 -24.33852,-12.89284 -39.27365,-26.79678 -11.29147,-12.1298 -15.3059,-17.82537 -23.50373,-33.44041"
       id="path3387"
       inkscape:connector-curvature="0"
       sodipodi:nodetypes="cccscccccccccscccc" />
    <path
       style="fill:#ffccaa;fill-opacity:1;fill-rule:evenodd;stroke:#000000;stroke-width:0.77605891px;stroke-linecap:butt;stroke-linejoin:miter;stroke-opacity:1"
       d="M 220.41433,529.52278 C 173.22869,469.715 236.85112,408.9385 268.46845,411.45594 c 23.73699,-1.68481 79.9951,4.24442 99.11934,5.35308 27.02336,0.36955 95.62117,-10.3475 116.40837,-0.36956 88.13778,33.99891 35.75401,116.4093 31.59657,121.21349 -28.68635,30.67293 -109.75648,32.15114 -137.61133,31.78159 -130.61971,3.10973 -157.56707,-39.91176 -157.56707,-39.91176 z"
       id="path4197"
       inkscape:connector-curvature="0"
       sodipodi:nodetypes="ccccccc" />
    <path
       style="fill:#ffffff;fill-opacity:1;fill-rule:evenodd;stroke:#ffffff;stroke-width:0.77605891px;stroke-linecap:butt;stroke-linejoin:miter;stroke-opacity:1"
       d="m 278.18189,525.719 c 0,0 -28.59414,-2.64642 -31.59657,-35.10756 0.6845,-28.01176 7.13032,-42.07655 18.72938,-47.19459 25.82174,-16.15855 46.44159,13.34492 47.81059,25.49918 2.39792,25.87325 -5.11071,41.36756 -5.11071,41.36756 0,0 -9.07081,17.34957 -29.83269,15.43541 z"
       id="path4209"
       inkscape:connector-curvature="0"
       sodipodi:nodetypes="cccccc" />
    <path
       style="fill:#c87166;fill-opacity:1;fill-rule:evenodd;stroke:#c87166;stroke-width:0.77605891px;stroke-linecap:butt;stroke-linejoin:miter;stroke-opacity:1"
       d="m 258.24705,482.6819 c -0.20226,-14.85954 8.60098,-28.70894 23.17774,-28.36322 15.35577,1.24301 22.34626,18.1081 22.13838,25.12964 2.07873,23.46662 -16.41029,33.70643 -22.03445,32.89023 -15.34384,0.0144 -21.93539,-15.1176 -23.28167,-29.65665 z"
       id="path4211"
       inkscape:connector-curvature="0"
       sodipodi:nodetypes="ccccc" />
    <path
       style="fill:#ffffff;fill-opacity:1;fill-rule:evenodd;stroke:#ffffff;stroke-width:0.77605891px;stroke-linecap:butt;stroke-linejoin:miter;stroke-opacity:1"
       d="m 461.75385,526.1968 c -14.9668,-1.47822 -31.80443,-16.99945 -32.0123,-41.57475 -0.20788,-18.66244 13.51167,-47.67237 33.05167,-46.00938 24.94465,0.7391 37.2091,24.76006 35.96187,42.49863 -1.66298,37.32487 -22.86593,44.71595 -29.72571,45.27028 -6.85979,0.55433 -7.27553,-0.18478 -7.27553,-0.18478 z"
       id="path4213"
       inkscape:connector-curvature="0"
       sodipodi:nodetypes="ccccsc" />
    <path
       style="fill:#c87166;fill-opacity:1;fill-rule:evenodd;stroke:#c87166;stroke-width:0.77605891px;stroke-linecap:butt;stroke-linejoin:miter;stroke-opacity:1"
       d="m 464.04045,511.969 c -6.23616,0.55433 -19.12424,-4.61942 -21.6187,-27.16217 -0.41574,-18.66244 10.3936,-29.93381 20.7872,-31.04248 19.33212,0.73911 23.07381,15.15168 23.9053,27.90128 1.38436,14.50771 -6.80459,30.70354 -23.0738,30.30337 z"
       id="path4215"
       inkscape:connector-curvature="0"
       sodipodi:nodetypes="ccccc" />
    <ellipse
       style="fill:#c87137;fill-opacity:1;stroke:#c87137;stroke-width:0.77605891;stroke-opacity:1"
       id="path4217"
       cx="369.6665"
       cy="522.68604"
       rx="7.4833961"
       ry="7.2062893" />
    <path
       style="fill:#c87137;fill-opacity:1;fill-rule:evenodd;stroke:#c87137;stroke-width:0.77605891px;stroke-linecap:butt;stroke-linejoin:miter;stroke-opacity:1"
       d="m 358.23354,544.12013 c -2.9093,-2.09051 -4.03647,-7.11662 -6.99632,-6.46718 -4.01477,1.82536 2.83887,9.60839 2.83887,9.60839 0,0 5.85177,5.45748 15.17467,6.46718 13.51835,-0.86791 18.11009,-8.42318 18.11009,-8.42318 3.48772,-3.2533 0.95326,-7.59827 0.95326,-7.59827 -4.45574,-0.76537 -5.1968,5.40336 -8.92806,7.38179 0,0 -6.60146,3.09636 -10.13529,3.09636 -3.53383,0 -11.01722,-4.06509 -11.01722,-4.06509 z"
       id="path4241"
       inkscape:connector-curvature="0"
       sodipodi:nodetypes="cccccccsc" />
    <path
       style="fill:#000000;fill-opacity:1;fill-rule:evenodd;stroke:#000000;stroke-width:0.77605891px;stroke-linecap:butt;stroke-linejoin:miter;stroke-opacity:1"
       d="m 313.11776,582.11856 c 0,0 -19.40238,8.88467 -28.8096,35.01603 -0.58795,6.27153 -27.7764,13.44433 -49.97585,8.88467 -14.8354,0.14674 -31.37975,-17.63182 -31.37975,-17.63182 0,0 -18.38776,-21.84642 -31.53102,-30.97252 -13.52287,-8.88467 -25.86986,-10.97517 -39.39273,-4.70365 0,0 -0.2228,5.01173 4.34739,9.18 4.96444,4.52783 15.05541,8.53068 23.28631,16.42873 15.78467,16.11574 17.92416,36.03468 36.45297,50.17223 41.74455,32.92552 85.84086,14.63357 85.84086,14.63357 -0.3778,5.3753 3.12149,53.50755 2.35182,54.87586 -8.78483,26.22549 -23.25757,23.41238 -28.22166,32.92552 1.1759,10.97518 35.27707,8.36205 50.56379,-8.36203 15.28673,-2.61314 10.58312,-19.33721 11.17107,-59.57951 -0.58794,-33.97078 2.35181,-47.03647 9.40723,-56.96638 2.93975,10.45255 2.3518,47.03645 2.3518,59.05689 0,5.73805 0.46837,29.45804 -0.27805,49.06809 -15.59663,31.93913 -19.28408,19.64755 -15.59663,31.93913 2.3518,5.22628 43.50838,-2.09051 50.5638,-28.22186 4.70361,-10.45256 2.35181,-115.50065 2.35181,-115.50065 l 8.23131,0 c 0,0 2.35181,100.86708 4.11566,110.79699 1.76384,9.92993 14.08246,39.92514 51.15173,33.97078 6.25782,-9.02373 -2.02093,-11.82988 -11.06269,-20.74315 -3.57445,-8.36375 -6.62196,-22.41757 -6.57583,-29.42907 l 0.58796,-89.36928 c 0,0 14.47137,4.90134 12.34696,43.37808 0.0668,5.61246 -5.94242,60.07297 8.23132,70.03205 5.87952,9.56164 47.03609,23.16678 50.5638,12.02043 5.87951,-15.67882 -18.81444,-6.27153 -25.28191,-38.15179 l 1.76387,-83.09775 c 0,0 -4.70362,-24.04085 -14.11084,-37.62916 l -15.28673,-11.4978 z"
       id="path4243"
       inkscape:connector-curvature="0"
       sodipodi:nodetypes="ccccccsccccccccscccccsccsccccccccc"
       inkscape:export-xdpi="90"
       inkscape:export-ydpi="90" />
    <path
       style="fill:none;fill-rule:evenodd;stroke:#000000;stroke-width:3.25944734;stroke-linecap:butt;stroke-linejoin:miter;stroke-miterlimit:4;stroke-dasharray:none;stroke-opacity:1"
       d="m 580.04757,498.49819 c 112.60475,-4.03313 112.85234,3.64789 158.15885,9.92992"
       id="path4278"
       inkscape:connector-curvature="0"
       sodipodi:nodetypes="cc" />
    <path
       style="fill:none;fill-rule:evenodd;stroke:#000000;stroke-width:3.25944734;stroke-linecap:butt;stroke-linejoin:miter;stroke-miterlimit:4;stroke-dasharray:none;stroke-opacity:1"
       d="m 574.75602,513.13176 c -8.32715,0.16091 57.20183,-5.14995 162.27451,20.38246"
       id="path4282"
       inkscape:connector-curvature="0"
       sodipodi:nodetypes="cc" />
    <path
       style="fill:none;fill-rule:evenodd;stroke:#000000;stroke-width:3.25944734;stroke-linecap:butt;stroke-linejoin:miter;stroke-miterlimit:4;stroke-dasharray:none;stroke-opacity:1"
       d="m 165.54202,498.49819 c 9.98584,-0.46717 -111.946535,-4.03245 -157.5709004,9.40729"
       id="path4284"
       inkscape:connector-curvature="0"
       sodipodi:nodetypes="cc" />
    <path
       style="fill:none;fill-rule:evenodd;stroke:#000000;stroke-width:3.25944734;stroke-linecap:butt;stroke-linejoin:miter;stroke-miterlimit:4;stroke-dasharray:none;stroke-opacity:1"
       d="m 164.95408,513.13176 c 0,0 -101.715556,2.61314 -159.3347654,19.85985"
       id="path4286"
       inkscape:connector-curvature="0"
       sodipodi:nodetypes="cc" />
    <ellipse
       style="fill:none;fill-opacity:1;stroke:#b9e6eb;stroke-width:4.19999981;stroke-miterlimit:4;stroke-dasharray:none;stroke-opacity:1"
       id="path4336"
       cx="152.91183"
       cy="575.82275"
       rx="4.1668792"
       ry="1.767767" />
    <ellipse
       style="fill:none;fill-opacity:1;stroke:#b9e6eb;stroke-width:4.19999981;stroke-miterlimit:4;stroke-dasharray:none;stroke-opacity:1"
       id="path4338"
       cx="169.83189"
       cy="584.15649"
       rx="3.661803"
       ry="1.767767" />
    <ellipse
       style="fill:none;fill-opacity:1;stroke:#b9e6eb;stroke-width:4.19999981;stroke-miterlimit:4;stroke-dasharray:none;stroke-opacity:1"
       id="path4340"
       cx="179.80716"
       cy="594.88934"
       rx="4.0406103"
       ry="1.8940361" />
    <ellipse
       style="fill:none;fill-opacity:1;stroke:#b9e6eb;stroke-width:4.19999981;stroke-miterlimit:4;stroke-dasharray:none;stroke-opacity:1"
       id="path4342"
       cx="188.26718"
       cy="607.01123"
       rx="4.1668792"
       ry="1.6414979" />
    <ellipse
       style="fill:none;fill-opacity:1;stroke:#b9e6eb;stroke-width:4.19999981;stroke-miterlimit:4;stroke-dasharray:none;stroke-opacity:1"
       id="path4344"
       cx="199.25259"
       cy="618.88049"
       rx="3.5355339"
       ry="2.1465743" />
    <ellipse
       style="fill:none;fill-opacity:1;stroke:#b9e6eb;stroke-width:4.19999981;stroke-miterlimit:4;stroke-dasharray:none;stroke-opacity:1"
       id="path4346"
       cx="213.01591"
       cy="628.35065"
       rx="4.4194174"
       ry="1.5152289" />
    <ellipse
       style="fill:none;fill-opacity:1;stroke:#b9e6eb;stroke-width:4.19999981;stroke-miterlimit:4;stroke-dasharray:none;stroke-opacity:1"
       id="path4348"
       cx="232.84016"
       cy="634.66412"
       rx="4.0406103"
       ry="1.5152289" />
    <ellipse
       style="fill:none;fill-opacity:1;stroke:#b9e6eb;stroke-width:4.19999981;stroke-miterlimit:4;stroke-dasharray:none;stroke-opacity:1"
       id="path4350"
       cx="251.52798"
       cy="634.66412"
       rx="3.7880721"
       ry="1.5152289" />
    <ellipse
       style="fill:none;fill-opacity:0.84951454;stroke:#b9e6eb;stroke-width:4.19999981;stroke-miterlimit:4;stroke-dasharray:none;stroke-opacity:1"
       id="path4352"
       cx="271.47849"
       cy="631.88623"
       rx="3.7880721"
       ry="1.767767" />
  </g>
</svg>
